<?xml version="1.0" encoding="UTF-8"?>
<svg id="Layer_2" data-name="Layer 2" xmlns="http://www.w3.org/2000/svg" viewBox="0 0 120.57 100">
  <defs>
    <style>
      .cls-1 {
        fill: #004e85;
      }

      .cls-2 {
        fill: #14a0de;
      }
    </style>
  </defs>
  <g id="Layer_1-2" data-name="Layer 1">
    <g>
      <path class="cls-2" d="m102.69,43.83l3.75,1.36-17.91,8.35c-1.21.57-1.74,2.01-1.17,3.22.41.88,1.28,1.4,2.2,1.4.34,0,.69-.07,1.02-.23l17.91-8.35-1.36,3.75c-.46,1.26.19,2.65,1.45,3.11.27.1.55.15.83.15.99,0,1.92-.61,2.28-1.59l3.36-9.24c.46-1.26-.19-2.65-1.45-3.1l-9.24-3.36c-1.26-.46-2.65.19-3.1,1.45-.46,1.26.19,2.65,1.45,3.1Z"/>
      <path class="cls-1" d="m61.71,64.8l-2.68,17.65h7.83l2.26-14.89-5.15-1.63c-.82-.26-1.58-.65-2.26-1.13Z"/>
      <path class="cls-1" d="m54.61,55.5c.3.09.6.13.89.13,1.4,0,2.69-.92,3.1-2.34l1.78-6.18,3.44-1.66-1.28,12.39c-.18,1.82.94,3.52,2.68,4.08l10.7,3.39.15,9.49h7.75l-.19-12.4c-.02-1.66-1.11-3.13-2.7-3.63l-6.78-2.15,2.5-11.05c.65-.05,1.3-.15,1.93-.33l7.68-2.15c.9-.25,1.65-.89,2.05-1.73l1.88-3.99,1.41,3.13c.4.89,1.45,1.29,2.34.89.89-.4,1.29-1.45.89-2.34l-2.65-5.9.66-1.39c.76-1.61.07-3.54-1.55-4.3-.58-.27-1.2-.35-1.79-.27l-3.52-7.83c1.9-1.13,3.75-1.4,5.83-1.69,1.8-.25,3.76-.52,5.8-1.44.94-.42,1.89-.98,2.86-1.74.64-.5.86-1.37.52-2.12l-5.09-11.33c-.22-.5-.66-.86-1.19-.99-.53-.13-1.09,0-1.51.32-2.31,1.81-4.46,2.11-6.96,2.46-2.62.36-5.59.78-8.66,3.17-.64.5-.86,1.37-.52,2.12l9.66,21.49-3.61,7.67-6.26,1.75c-.57.16-1.18.18-1.76.06l-6.29-1.29c-1.79-.37-3.69-.15-5.34.65l-7.19,3.46c-.83.4-1.45,1.13-1.7,2.02l-2.18,7.57c-.49,1.71.5,3.5,2.21,4Z"/>
      <path class="cls-1" d="m118.15,63.15h-11.25c-1.34,0-2.42,1.08-2.42,2.42v5.22h-13.72c-1.34,0-2.42,1.08-2.42,2.42v5.22h-13.72c-1.34,0-2.42,1.08-2.42,2.42v5.22h-13.72c-1.34,0-2.42,1.08-2.42,2.42v6.65H2.42c-1.34,0-2.42,1.08-2.42,2.42s1.08,2.42,2.42,2.42h56.04c1.34,0,2.42-1.08,2.42-2.42v-6.65h13.72c1.34,0,2.42-1.08,2.42-2.42v-5.22h13.72c1.34,0,2.42-1.08,2.42-2.42v-5.22h13.72c1.34,0,2.42-1.08,2.42-2.42v-5.22h8.83c1.34,0,2.42-1.08,2.42-2.42s-1.08-2.42-2.42-2.42Z"/>
      <path class="cls-1" d="m74.47,36.73c3.75,0,6.8-3.04,6.8-6.8s-3.04-6.8-6.8-6.8-6.8,3.04-6.8,6.8,3.04,6.8,6.8,6.8Z"/>
      <path class="cls-1" d="m12.98,67.72c.36.16.75.24,1.11.24,1.23,0,2.38-.75,2.86-1.95,1.27-3.14,2.98-6.23,4.57-8.5l-.44,11.95-4.76,22.15h6.95l4.41-20.45h1.35v20.45h6.79v-21.84l-.4-11.51,2.38,2.94c.36.48.87.79,1.43.99l6.31,2.06c1.63.52,3.34-.4,3.85-1.99.52-1.63-.36-3.33-1.95-3.85l-5.48-1.79-4.45-5.48c-1.59-1.99-3.97-3.1-6.51-3.1h-5.96c-6.99,0-12.31,11.99-13.78,15.68-.64,1.59.12,3.37,1.71,3.97Z"/>
      <path class="cls-1" d="m28.44,46.21c3.76,0,6.81-3.05,6.81-6.81s-3.05-6.81-6.81-6.81-6.81,3.05-6.81,6.81,3.05,6.81,6.81,6.81Z"/>
    </g>
  </g>
</svg>