<?xml version="1.0" encoding="UTF-8"?>
<svg id="Layer_2" data-name="Layer 2" xmlns="http://www.w3.org/2000/svg" viewBox="0 0 89.44 100">
  <defs>
    <style>
      .cls-1 {
        fill: #004e85;
      }

      .cls-2 {
        fill: #14a0de;
      }
    </style>
  </defs>
  <g id="Layer_1-2" data-name="Layer 1">
    <g>
      <g>
        <path class="cls-1" d="m56.52,81.72h-23.59c-.67,0-1.21.54-1.21,1.21v8.23c0,.67.54,1.21,1.21,1.21h2.79c.73,4.32,4.47,7.62,9,7.62s8.27-3.29,9-7.62h2.79c.67,0,1.21-.54,1.21-1.21v-8.23c0-.67-.54-1.21-1.21-1.21Z"/>
        <g>
          <path class="cls-1" d="m44.72,12.43c-1.35,0-2.45-1.1-2.45-2.45V2.45c0-1.35,1.1-2.45,2.45-2.45s2.46,1.1,2.46,2.45v7.52c0,1.35-1.1,2.45-2.46,2.45Z"/>
          <path class="cls-1" d="m27.35,17.09c-.88,0-1.69-.47-2.13-1.23l-3.76-6.51c-.68-1.17-.27-2.68.9-3.35.37-.22.8-.33,1.22-.33.88,0,1.69.47,2.13,1.23l3.76,6.51c.68,1.17.27,2.68-.9,3.35-.37.22-.8.33-1.22.33Z"/>
          <path class="cls-1" d="m14.63,29.8c-.43,0-.85-.11-1.22-.33l-6.51-3.76c-.57-.33-.97-.86-1.14-1.49-.17-.63-.08-1.3.24-1.86.44-.76,1.25-1.23,2.13-1.23.43,0,.85.11,1.22.33l6.51,3.76c1.17.68,1.57,2.18.9,3.35-.44.76-1.25,1.23-2.13,1.23Z"/>
          <path class="cls-1" d="m2.46,47.18c-1.35,0-2.46-1.1-2.46-2.45s1.1-2.45,2.46-2.45h7.52c1.35,0,2.46,1.1,2.46,2.45s-1.1,2.45-2.46,2.45H2.46Z"/>
          <path class="cls-1" d="m8.12,68.31c-.88,0-1.69-.47-2.13-1.23-.68-1.17-.27-2.68.9-3.35l6.51-3.76c.37-.22.8-.33,1.22-.33.88,0,1.69.47,2.13,1.23.68,1.17.27,2.68-.9,3.35l-6.51,3.76c-.37.22-.8.33-1.22.33Z"/>
          <path class="cls-1" d="m81.32,68.31c-.43,0-.85-.11-1.22-.33l-6.52-3.76c-.57-.33-.97-.86-1.14-1.49-.17-.63-.08-1.3.25-1.86.44-.76,1.25-1.23,2.13-1.23.43,0,.85.11,1.22.33l6.51,3.76c.57.33.97.86,1.14,1.49.17.63.08,1.29-.25,1.86-.44.76-1.25,1.23-2.13,1.23Z"/>
          <path class="cls-1" d="m79.47,47.18c-1.35,0-2.46-1.1-2.46-2.45s1.1-2.45,2.46-2.45h7.52c1.35,0,2.45,1.1,2.45,2.45s-1.1,2.45-2.45,2.45h-7.52Z"/>
          <path class="cls-1" d="m74.82,29.8c-.88,0-1.69-.47-2.13-1.23-.68-1.17-.27-2.68.9-3.35l6.51-3.76c.37-.22.8-.33,1.23-.33.88,0,1.69.47,2.13,1.23.33.57.42,1.23.25,1.86-.17.63-.58,1.16-1.14,1.49l-6.51,3.76c-.37.22-.8.33-1.22.33Z"/>
          <path class="cls-1" d="m62.09,17.09c-.43,0-.85-.11-1.22-.33-1.17-.68-1.57-2.18-.9-3.35l3.76-6.51c.44-.76,1.25-1.23,2.13-1.23.43,0,.85.11,1.22.33,1.17.68,1.58,2.18.9,3.35l-3.76,6.51c-.44.76-1.25,1.23-2.13,1.23Z"/>
        </g>
        <path class="cls-1" d="m19.01,47.76c.53,4.73,2.37,9.17,5.38,12.98,3.1,3.93,5.23,7.75,6.53,11.65l.53,1.57c.24.74.95,1.24,1.72,1.24h23.09c.8,0,1.48-.5,1.72-1.24l.53-1.57c1.27-3.81,3.31-7.51,6.27-11.29,2.34-2.99,4.14-6.39,5.06-10.08.27-1.09.47-2.19.59-3.25H19.01Z"/>
      </g>
      <path class="cls-2" d="m68.89,38.83l-5.32-.77c-.59-1.42-.74-1.8-1.33-3.22l3.22-4.32c.53-.71.44-1.74-.18-2.37l-4.73-4.73c-.65-.65-1.66-.71-2.4-.18l-4.29,3.19c-1.42-.59-1.8-.74-3.22-1.33l-.77-5.29c-.15-.92-.92-1.57-1.8-1.57h-6.71c-.89,0-1.66.65-1.8,1.57l-.77,5.29c-1.42.59-1.8.74-3.22,1.33l-4.29-3.19c-.74-.53-1.74-.47-2.4.18l-4.73,4.73c-.62.62-.71,1.66-.18,2.37l3.22,4.32c-.59,1.42-.74,1.8-1.33,3.22l-5.32.77c-.89.12-1.54.89-1.54,1.8v4.08h15.61c-.03-.24-.03-.5-.03-.74,0-5.59,4.52-10.14,10.14-10.14s10.11,4.55,10.11,10.14c0,.24,0,.5-.03.74h15.61v-4.08c0-.92-.65-1.69-1.54-1.8Z"/>
    </g>
  </g>
</svg>